<svg width="50" height="50" viewBox="0 0 50 50" fill="none" xmlns="http://www.w3.org/2000/svg">
<path d="M23.6361 44.1C23.1722 44.1 22.75 43.9861 22.3736 43.7584C21.7569 43.3847 21.3 42.7056 21.0542 41.7945C20.8819 41.1542 20.868 40.6056 20.868 40.5834C20.8639 40.3695 20.9653 40.1681 21.1403 40.0445C21.3153 39.9209 21.5403 39.8931 21.7389 39.9695C21.7486 39.9736 22.7403 40.3486 23.8389 40.6597C24.475 40.8403 24.9542 40.9445 25.3125 41.0042C24.8875 40.85 24.3778 40.6931 23.8417 40.5278C22.8444 40.2222 21.8153 39.9056 20.9944 39.507C20.5083 39.2709 20.1444 39.0278 19.8833 38.7653C19.4208 38.3014 19.3472 37.8347 19.368 37.5264C19.368 37.5222 19.368 37.5167 19.3694 37.5125C19.3903 37.2695 19.5194 37.0542 19.7236 36.9195C20.2569 36.5681 21.0805 36.7917 23.4917 37.5792C24.3611 37.8625 25.2597 38.1556 26.0222 38.3459C26.1903 38.3875 26.3403 38.4222 26.4722 38.4486C26.3917 38.4139 26.3042 38.3778 26.2083 38.3403C25.5528 38.0806 24.7403 37.825 23.8805 37.5556C22.8389 37.2278 21.7611 36.8889 20.9417 36.5292C20.1417 36.1778 19.2264 35.6667 19.2583 34.8236C19.2694 34.5167 19.4125 34.2514 19.6597 34.0792C20.0639 33.7959 20.6819 33.7875 21.7917 34.0514C22.5847 34.2403 23.5555 34.5514 24.4944 34.8528C25.3486 35.1264 26.2319 35.4097 26.9514 35.5903C27.2958 35.6764 27.5542 35.7264 27.7458 35.7556C27.625 35.6917 27.4639 35.6167 27.25 35.5334C26.6833 35.3111 25.9375 35.0972 25.1486 34.8695C23.5555 34.4111 21.7486 33.8917 20.5444 33.0625C19.818 32.5625 19.3611 32.0111 19.1083 31.325C18.8861 30.7236 18.8486 30.0861 18.8097 29.4097C18.7403 28.2278 18.6555 26.7584 17.5403 24.7C16.0153 22.7945 14.9819 20.8292 14.468 18.8556C13.975 16.9611 13.9708 15.1236 14.4583 13.3945C14.9042 11.8084 15.7403 10.3931 16.9417 9.18892C18.1361 7.99169 19.6278 7.06669 21.3764 6.43892C21.3778 6.43892 21.3778 6.43892 21.3792 6.43753C22.15 6.16392 23.0694 5.98753 24.0417 5.92781C25.1556 5.85836 26.268 5.94308 27.3486 6.17781C30.0514 6.76669 32.3083 8.26392 33.8722 10.5097C33.8736 10.5111 33.875 10.5125 33.875 10.5153C34.8097 11.8847 35.4278 13.2722 35.7111 14.6403C35.9778 15.9236 35.9583 17.2236 35.6514 18.5028C35.1292 20.6861 33.7958 22.8361 31.575 25.0736C31.5403 25.1111 31.1528 25.5431 30.668 26.4528C30.2014 27.3306 29.5472 28.8445 29.0847 31.075C29.0583 31.2097 28.8444 32.1695 28.0667 32.7445C27.2805 33.3695 26.0889 33.4584 24.9458 32.9792C24.8375 32.9403 24.5528 32.8236 24.2625 32.5778C23.7903 32.1778 23.5319 31.6361 23.5153 31.0097C23.5153 31.007 23.5153 31.0056 23.5153 31.0028C23.5139 30.9556 23.4375 26.2139 23.4375 24.3431C23.4375 23.8347 22.7083 23.2445 22.0639 22.725C21.6903 22.4236 21.3055 22.1125 21.0125 21.7834C20.693 21.425 20.5236 20.957 20.5361 20.4653C20.5472 20.0223 20.7083 19.6028 20.9667 19.3431C20.975 19.3348 20.9847 19.325 20.9944 19.3167C21.5153 18.8542 22 18.8931 22.3139 19.0084C22.6403 19.1278 22.8792 19.3584 23.0889 19.5639C23.1375 19.6111 23.1986 19.6709 23.2542 19.7209C23.293 19.6084 23.3333 19.4584 23.3611 19.3542C23.4528 19.0125 23.5555 18.625 23.7847 18.3C24.1055 17.8445 24.5833 17.632 25.1694 17.6861C25.6917 17.7347 26.1 17.9917 26.3472 18.4292C26.5278 18.7472 26.5903 19.1042 26.6417 19.3903C26.6458 19.4153 26.6514 19.4445 26.6569 19.4736C26.7514 19.382 26.8542 19.2723 26.9236 19.1972C27.1222 18.9834 27.3264 18.7625 27.5667 18.5972C28.0555 18.2625 28.4708 18.3264 28.7347 18.4375C28.7361 18.4389 28.7375 18.4389 28.7403 18.4403C29.2514 18.6625 29.5833 19.0764 29.6764 19.607C29.9 20.8736 28.7097 22.4722 28.2375 22.9278C27.2208 23.9695 25.643 24.2778 25.575 24.2903C25.2264 24.3556 24.8889 24.1264 24.8236 23.7778C24.7583 23.4292 24.9875 23.0931 25.3347 23.0264C25.3472 23.0236 26.5931 22.7764 27.3208 22.0236C27.3264 22.0167 27.3333 22.0111 27.3389 22.0056C27.7653 21.6 28.5083 20.4028 28.4083 19.8306C28.3958 19.7584 28.3708 19.7042 28.2944 19.657C28.1778 19.7361 27.9792 19.95 27.8667 20.0723C27.5153 20.4528 27.0833 20.9181 26.4972 20.9181C26.4528 20.9181 26.4069 20.9153 26.3597 20.9097C26.1486 20.8834 25.7639 20.7681 25.5472 20.2792C25.4542 20.0695 25.4139 19.8389 25.3736 19.6153C25.2625 18.9861 25.2 18.9806 25.0486 18.9667C24.8958 18.9528 24.8722 18.9861 24.8361 19.0389C24.7389 19.1778 24.6667 19.4473 24.6028 19.6861C24.5403 19.9181 24.4764 20.1584 24.3736 20.375C24.2083 20.7209 23.9667 20.9459 23.6569 21.0431C23.4361 21.1125 23.0903 21.1459 22.7 20.9111C22.5014 20.7917 22.3361 20.6306 22.1903 20.4889C22.1097 20.4097 21.9805 20.2848 21.9055 20.2375C21.8972 20.2431 21.8875 20.25 21.8764 20.2597C21.8194 20.3528 21.7528 20.6847 21.9736 20.9334C22.1958 21.1834 22.5236 21.4486 22.8722 21.7292C23.7403 22.4306 24.7236 23.225 24.7236 24.3486C24.7236 26.1861 24.7986 30.8222 24.8014 30.9834C24.8083 31.2389 24.9042 31.4403 25.0944 31.6014C25.2305 31.7167 25.3708 31.7709 25.3722 31.7709C25.3917 31.7764 25.4111 31.7847 25.4292 31.7917C26.1347 32.0931 26.8583 32.0722 27.2722 31.7375C27.2805 31.7306 27.2889 31.725 27.2972 31.7181C27.6264 31.4792 27.7875 30.9986 27.8222 30.8306C27.8236 30.8264 27.8222 30.8278 27.8236 30.8222C28.793 26.1486 30.5736 24.2639 30.65 24.1847C30.6514 24.182 30.6542 24.1806 30.6556 24.1778C35.0958 19.707 35.7806 15.5986 32.8125 11.2473C29.7611 6.86808 24.443 6.71947 21.8069 7.65558C18.6986 8.77086 16.4708 10.9917 15.6944 13.7486C14.8055 16.9084 15.8278 20.5292 18.5764 23.9445C18.6 23.9736 18.6208 24.0056 18.6389 24.0389C19.918 26.3764 20.018 28.0903 20.0903 29.3417C20.1653 30.6292 20.2028 31.275 21.2694 32.0084C22.3014 32.7181 24.0014 33.207 25.5 33.6375C27.4458 34.1972 28.8514 34.6014 29.2653 35.4667C29.4153 35.7806 29.4208 36.1222 29.2806 36.4542C29.1681 36.7222 28.8903 37.0486 28.2139 37.0764C27.9125 37.0889 27.5264 37.0431 27.0375 36.9375C26.1986 36.7556 25.1305 36.4139 24.0972 36.082C23.2472 35.8097 22.368 35.5278 21.6514 35.3472C21.4861 35.3056 21.3417 35.2722 21.2139 35.2459C21.35 35.3111 21.5125 35.3834 21.7055 35.4625C22.4305 35.7584 23.3625 36.05 24.2625 36.3334C25.3153 36.6639 26.3083 36.9778 27.0653 37.3111C27.5125 37.5084 27.8403 37.6986 28.0708 37.8945C28.5986 38.3431 28.5778 38.8042 28.5194 39.0403C28.4528 39.307 28.2792 39.5292 28.0319 39.6667C27.2167 40.1181 25.6222 39.6348 23.0889 38.8084C22.4722 38.607 21.8875 38.4167 21.3903 38.275C21.4417 38.3014 21.4958 38.3292 21.5528 38.357C22.2833 38.7125 23.2653 39.0139 24.2153 39.3056C24.993 39.5445 25.7278 39.7695 26.2792 40.0139C26.6208 40.1639 26.8639 40.3084 27.0486 40.4667C27.4694 40.8306 27.4833 41.2222 27.4555 41.4236C27.4111 41.732 27.2347 41.9931 26.9569 42.1556C26.7694 42.2667 26.5 42.3653 26.0111 42.3653C25.4903 42.3653 24.7208 42.2528 23.5361 41.9195C23.093 41.7945 22.6694 41.6611 22.3111 41.5431C22.4417 41.9875 22.6653 42.4445 23.0361 42.6667C23.4805 42.9334 24.1389 42.8514 24.9917 42.425C25.3097 42.2667 25.6958 42.3945 25.8542 42.7125C26.0125 43.0306 25.8847 43.4167 25.5667 43.575C24.8639 43.9222 24.2167 44.1 23.6361 44.1Z" fill="#CF8996"/>
</svg>
